<?xml version="1.0" standalone="no"?>
<!DOCTYPE svg PUBLIC "-//W3C//DTD SVG 20010904//EN"
 "http://www.w3.org/TR/2001/REC-SVG-20010904/DTD/svg10.dtd">
<svg version="1.0" xmlns="http://www.w3.org/2000/svg"
 width="728.000000pt" height="344.000000pt" viewBox="0 0 728.000000 344.000000"
 preserveAspectRatio="xMidYMid meet">
<metadata>
Created by potrace 1.15, written by Peter Selinger 2001-2017
</metadata>
<g transform="translate(0.000000,344.000000) scale(0.100000,-0.100000)"
fill="#000000" stroke="none">
<path d="M2670 2915 l0 -54 68 -3 67 -3 3 -1282 2 -1283 -65 0 -65 0 0 -60 0
-60 190 0 190 0 0 60 0 60 -65 0 -65 0 0 1102 0 1101 188 183 187 183 563 1
562 0 0 -175 c0 -148 2 -175 15 -175 12 0 15 28 17 173 l3 172 123 3 122 3 0
54 0 55 -1020 0 -1020 0 0 -55z m2010 0 l0 -25 -990 0 -990 0 0 25 0 25 990 0
990 0 0 -25z m-1780 -1340 l0 -1285 -30 0 -30 0 0 1285 0 1285 30 0 30 0 0
-1285z m250 1277 c0 -5 -49 -55 -110 -111 l-110 -103 0 105 c0 57 3 107 7 110
9 10 213 9 213 -1z m100 0 c0 -5 -72 -78 -160 -161 -135 -129 -160 -149 -160
-128 0 33 264 297 298 297 12 0 22 -4 22 -8z m-220 -2622 l0 -30 -160 0 -160
0 0 30 0 30 160 0 160 0 0 -30z"/>
</g>
</svg>
