<?xml version="1.0" standalone="no"?>
<!DOCTYPE svg PUBLIC "-//W3C//DTD SVG 20010904//EN"
 "http://www.w3.org/TR/2001/REC-SVG-20010904/DTD/svg10.dtd">
<svg version="1.0" xmlns="http://www.w3.org/2000/svg"
 width="208.000000pt" height="194.000000pt" viewBox="0 0 208.000000 194.000000"
 preserveAspectRatio="xMidYMid meet">
<metadata>
Created by potrace 1.15, written by Peter Selinger 2001-2017
</metadata>
<g transform="translate(0.000000,194.000000) scale(0.100000,-0.100000)"
fill="#000000" stroke="none">
<path d="M905 1646 c-312 -78 -525 -346 -525 -661 0 -190 62 -338 200 -475
141 -141 284 -200 485 -200 200 0 342 59 486 200 70 69 94 101 127 170 56 113
72 183 72 305 0 192 -60 336 -200 475 -140 141 -286 200 -490 199 -58 0 -127
-6 -155 -13z m310 -81 c212 -54 385 -224 440 -433 20 -74 20 -221 1 -294 -45
-168 -164 -313 -317 -386 -182 -87 -365 -87 -548 0 -149 71 -274 223 -316 384
-20 76 -19 220 1 298 52 203 227 376 434 430 73 19 231 20 305 1z"/>
</g>
</svg>
